<?xml version="1.0" encoding="UTF-8"?>
<svg id="Layer_2" data-name="Layer 2" xmlns="http://www.w3.org/2000/svg" viewBox="0 0 686.79 316.88">
  <defs>
    <style>
      .cls-1 {
        fill: #092844;
      }

      .cls-2 {
        fill: #fff;
      }

      .cls-3 {
        fill: #154060;
      }

      .cls-4 {
        fill: #3e6f93;
      }
    </style>
  </defs>
  <g id="Crop_Marks" data-name="Crop Marks">
    <g>
      <path class="cls-4" d="m662.58,27.23H51.43c-13.57,0-24.21,13.38-24.21,30.47v228.72c0,17.08,10.63,30.47,24.21,30.47h611.15c13.57,0,24.21-13.38,24.21-30.47V57.69c0-17.08-10.63-30.47-24.21-30.47Z"/>
      <path class="cls-4" d="m662.58,27.23H51.43c-13.57,0-24.21,13.38-24.21,30.47v228.72c0,17.08,10.63,30.47,24.21,30.47h611.15c13.57,0,24.21-13.38,24.21-30.47V57.69c0-17.08-10.63-30.47-24.21-30.47Z"/>
      <path class="cls-2" d="m635.36,0H24.21C10.63,0,0,13.38,0,30.47v228.72c0,17.08,10.63,30.47,24.21,30.47h611.15c13.57,0,24.21-13.38,24.21-30.47V30.47c0-17.08-10.63-30.47-24.21-30.47Z"/>
      <path class="cls-4" d="m271.81,8.57H24.21c-8.64,0-15.64,9.8-15.64,21.9v228.72c0,12.09,7,21.9,15.64,21.9h79.28c-1.37-10.67-2.07-21.54-2.07-32.58,0-110.99,71.19-205.35,170.4-239.93Z"/>
      <path class="cls-3" d="m206.54,248.5c0-79.99,63.08-145.23,142.21-148.74V30.47c0-12.09-7-21.9-15.64-21.9h-61.29C172.6,43.15,101.41,137.5,101.41,248.5c0,11.04.71,21.92,2.07,32.58h106.67c-2.34-10.49-3.62-21.39-3.62-32.58Z"/>
      <path class="cls-1" d="m206.54,248.5c0,11.2,1.28,22.09,3.62,32.58h122.95c8.64,0,15.64-9.8,15.64-21.9V99.75c-79.13,3.51-142.21,68.75-142.21,148.74Z"/>
      <path class="cls-1" d="m271.81,8.57H24.21c-8.64,0-15.64,9.8-15.64,21.9v228.72c0,12.09,7,21.9,15.64,21.9h79.28c-1.37-10.67-2.07-21.54-2.07-32.58,0-110.99,71.19-205.35,170.4-239.93Z"/>
      <path class="cls-3" d="m206.54,248.5c0-79.99,63.08-145.23,142.21-148.74V30.47c0-12.09-7-21.9-15.64-21.9h-61.29C172.6,43.15,101.41,137.5,101.41,248.5c0,11.04.71,21.92,2.07,32.58h106.67c-2.34-10.49-3.62-21.39-3.62-32.58Z"/>
      <path class="cls-4" d="m206.54,248.5c0,11.2,1.28,22.09,3.62,32.58h122.95c8.64,0,15.64-9.8,15.64-21.9V99.75c-79.13,3.51-142.21,68.75-142.21,148.74Z"/>
      <g>
        <path class="cls-2" d="m143.33,211.59c-9.38,4.74-21.19,7.12-35.42,7.12-18.32,0-33.01-5.77-44.05-17.3s-16.57-26.76-16.57-45.69,6.12-36.01,18.37-48.8c12.24-12.79,28.02-19.18,47.33-19.18,12.16,0,22.28,1.69,30.35,5.07v19.88c-8.94-5.02-18.84-7.53-29.7-7.53-13.8,0-24.87,4.54-33.21,13.62-8.34,9.08-12.52,20.96-12.52,35.63s3.91,25.36,11.74,34.03,18.31,13.01,31.46,13.01c12.22,0,22.96-2.81,32.23-8.43v18.57Z"/>
        <path class="cls-2" d="m211.97,215.6c-3.55,2.02-8.64,3.03-15.3,3.03-17.18,0-25.77-9.33-25.77-27.98v-49.33h-15.3v-15.22h15.3v-21.19l19.14-5.81v27h21.92v15.22h-21.92v45.98c0,5.62.99,9.68,2.99,12.19,1.99,2.51,5.2,3.76,9.61,3.76,3.44,0,6.54-.98,9.33-2.94v15.3Z"/>
        <path class="cls-2" d="m281.42,144.43c-2.84-1.85-6.6-2.78-11.29-2.78-6.22,0-11.25,2.73-15.09,8.18-3.85,5.45-5.77,12.68-5.77,21.68v45.08h-19.22v-90.48h19.22v18h.41c4.47-13.03,12.38-19.55,23.72-19.55,3.38,0,6.05.38,8.02,1.15v18.73Z"/>
        <path class="cls-2" d="m295.98,216.58V82.67h19.22v133.92h-19.22Z"/>
        <path class="cls-1" d="m380.57,190.32c9.71,7.91,21.13,11.86,34.28,11.86,16.8,0,25.2-5.75,25.2-17.26,0-3.33-.93-6.33-2.78-9-1.86-2.67-4.35-5-7.49-6.99-3.14-1.99-9.34-5.19-18.61-9.61-11.4-5.45-19.36-10.99-23.89-16.61-4.53-5.62-6.79-12.22-6.79-19.8,0-10.91,4.31-19.5,12.93-25.77,8.62-6.27,19.63-9.41,33.05-9.41,12.71,0,22.3,1.55,28.8,4.66v20.12c-7.8-5.4-17.54-8.1-29.21-8.1-7.47,0-13.5,1.5-18.08,4.5-4.58,3-6.87,7.12-6.87,12.35,0,4.74,1.68,8.64,5.03,11.7,3.35,3.06,10.43,7.15,21.23,12.27,12.6,5.89,21.3,11.79,26.1,17.71,4.8,5.92,7.2,12.72,7.2,20.41,0,11.45-4.15,20.21-12.43,26.26-8.29,6.05-19.77,9.08-34.44,9.08-5.4,0-11.4-.65-18-1.96-6.6-1.31-11.67-3.05-15.22-5.24v-21.19Z"/>
        <path class="cls-1" d="m554.9,126.11l-39.84,102.42c-7.91,20.4-19.36,30.6-34.36,30.6-4.91,0-8.89-.52-11.94-1.55v-16.2c3.16,1.42,6.43,2.13,9.82,2.13,7.2,0,12.52-4.01,15.95-12.03l6.3-15.05-35.83-90.31h21.35l21.76,64.55c.49,1.36,1.2,4.25,2.13,8.67h.41c.27-1.74,1.01-4.58,2.21-8.51l22.66-64.71h19.39Z"/>
        <path class="cls-1" d="m564.63,195.56c8.45,5.73,17.23,8.59,26.34,8.59,12,0,18-3.71,18-11.13,0-3.11-1.25-5.66-3.76-7.65-2.51-1.99-8.15-4.62-16.93-7.89-9.22-3.54-15.43-7.32-18.65-11.33-3.22-4.01-4.83-9.04-4.83-15.09,0-8.34,3.49-14.94,10.47-19.8,6.98-4.85,15.62-7.28,25.93-7.28,7.91,0,15.3,1.31,22.17,3.93v17.02c-6.87-4.25-14.56-6.38-23.07-6.38-4.86,0-8.78,1.01-11.78,3.03-3,2.02-4.5,4.66-4.5,7.94s1.1,5.75,3.31,7.61c2.21,1.85,7.29,4.31,15.26,7.36,9.82,3.6,16.51,7.43,20.08,11.49,3.57,4.06,5.36,9.12,5.36,15.18,0,8.56-3.49,15.3-10.47,20.21-6.98,4.91-16.14,7.36-27.49,7.36-9.71,0-18.19-1.69-25.44-5.07v-18.08Z"/>
      </g>
    </g>
  </g>
</svg>